<svg xmlns="http://www.w3.org/2000/svg" version="1.1" xmlns:xlink="http://www.w3.org/1999/xlink" viewBox="0 0 700 700" style="overflow: hidden; display: block;" width="700" height="700"><defs><linearGradient id="two-3" x1="350" y1="-350" x2="350" y2="350" spreadMethod="pad" gradientUnits="userSpaceOnUse"><stop offset="0%" stop-color="hsl(184, 74%, 44%)" stop-opacity="1"></stop><stop offset="100%" stop-color="hsl(332, 87%, 70%)" stop-opacity="1"></stop></linearGradient></defs><g id="two-0" transform="matrix(1 0 0 1 0 0)" opacity="1"><path transform="matrix(1 0 0 1 350 350)" id="two-41" d="M 136.990117 40.223927 C 122.981577 77.535757 226.274544 98.799595 211.042966 135.629079 C 200.333206 161.524947 154.620425 142.953993 126.802349 146.337712 C 108.020602 148.622275 83.277714 139.622561 69.851418 152.953271 C 27.586173 194.917618 107.045431 326.520091 47.745654 332.078321 C -23.283378 338.735946 50.626041 145.164797 -18.142034 126.180612 C -46.159119 118.446187 -55.972826 177.564783 -84.219252 184.414438 C -104.737971 189.390151 -125.643201 173.331594 -146.264051 168.797712 C -175.781391 162.307769 -225.631695 180.127735 -236.262802 151.836882 C -252.079757 109.745768 -177.255826 81.947471 -152.117857 44.665832 C -142.617577 30.576149 -124.386307 16.862446 -126.491631 0 C -129.445073 -23.655394 -175.366064 -28.097479 -176.74387 -51.896683 C -177.737055 -69.052233 -150.81014 -77.036141 -145.078794 -93.23648 C -137.151887 -115.642841 -145.442748 -141.574386 -143.175392 -165.23321 C -139.705788 -201.436928 -160.03843 -263.815565 -125.110358 -273.95347 C -76.547762 -288.048807 -72.217146 -171.190095 -22.965838 -159.730909 C -6.061419 -155.797797 11.258357 -169.955323 25.798474 -179.432334 C 64.73303 -204.809241 81.972397 -265.252318 126.776287 -277.601347 C 157.62384 -286.103674 197.984409 -277.289458 221.110262 -255.174846 C 244.808495 -232.512885 245.236951 -192.267489 248.388318 -159.62948 C 251.219365 -130.308945 228.180422 -97.329635 240.757892 -70.692896 C 258.324179 -33.490769 351.831407 -40.277378 343.446566 -0.000001 C 329.299916 67.954772 161.38753 -24.758725 136.990117 40.223927 Z " fill="#ff274b" stroke="undefined" stroke-width="1" stroke-opacity="1" fill-opacity="1" visibility="visible" stroke-linecap="butt" stroke-linejoin="miter" stroke-miterlimit="4"></path></g></svg>